<svg xmlns="http://www.w3.org/2000/svg" xmlns:xlink="http://www.w3.org/1999/xlink" width="64" zoomAndPan="magnify" viewBox="0 0 48 48" height="64" preserveAspectRatio="xMidYMid meet" version="1.0"><defs><clipPath id="88979520f7"><path d="M 0.488281 5.160156 L 47.507812 5.160156 L 47.507812 40 L 0.488281 40 Z M 0.488281 5.160156 " clip-rule="nonzero"/></clipPath><clipPath id="046b309928"><path d="M 0.488281 6 L 47.507812 6 L 47.507812 41 L 0.488281 41 Z M 0.488281 6 " clip-rule="nonzero"/></clipPath></defs><g clip-path="url(#88979520f7)"><path fill="#ffffff" d="M 45.746094 9.113281 C 45.320312 9.003906 44.726562 8.914062 44.191406 8.820312 L 43.75 8.742188 L 43.75 7.964844 C 43.746094 7.714844 43.703125 7.46875 43.617188 7.234375 C 43.53125 7 43.40625 6.785156 43.246094 6.589844 C 43.085938 6.398438 42.898438 6.238281 42.683594 6.109375 C 42.46875 5.980469 42.238281 5.890625 41.992188 5.84375 C 40.898438 5.585938 39.792969 5.429688 38.671875 5.367188 C 36.644531 5.277344 34.644531 5.476562 32.671875 5.960938 C 30.699219 6.445312 28.832031 7.199219 27.078125 8.222656 C 26.964844 8.296875 26.859375 8.378906 26.757812 8.46875 C 26.664062 8.375 26.558594 8.292969 26.449219 8.222656 C 24.683594 7.191406 22.808594 6.433594 20.824219 5.949219 C 18.84375 5.460938 16.832031 5.265625 14.789062 5.359375 C 13.671875 5.425781 12.5625 5.589844 11.472656 5.84375 C 11.230469 5.898438 11.007812 5.992188 10.796875 6.125 C 10.589844 6.257812 10.40625 6.421875 10.253906 6.617188 C 10.097656 6.8125 9.980469 7.023438 9.898438 7.257812 C 9.820312 7.492188 9.777344 7.730469 9.777344 7.980469 L 9.777344 8.695312 L 9.25 8.789062 C 8.644531 8.890625 8.003906 8.996094 7.53125 9.113281 C 7.292969 9.175781 7.074219 9.273438 6.867188 9.40625 C 6.664062 9.539062 6.484375 9.703125 6.335938 9.898438 C 6.183594 10.089844 6.070312 10.304688 5.992188 10.535156 C 5.914062 10.769531 5.875 11.007812 5.875 11.25 L 5.875 20.191406 C 5.238281 20.582031 4.644531 21.035156 4.105469 21.550781 C 3.5625 22.070312 3.082031 22.640625 2.660156 23.257812 C 2.242188 23.878906 1.890625 24.539062 1.613281 25.234375 C 1.332031 25.929688 1.132812 26.644531 1.003906 27.382812 C 0.878906 28.125 0.832031 28.867188 0.867188 29.617188 C 0.902344 30.363281 1.011719 31.101562 1.203125 31.824219 C 1.394531 32.550781 1.660156 33.246094 2 33.914062 C 2.339844 34.582031 2.75 35.203125 3.222656 35.785156 C 3.695312 36.367188 4.226562 36.890625 4.8125 37.355469 C 5.398438 37.824219 6.027344 38.222656 6.699219 38.554688 C 7.371094 38.886719 8.070312 39.144531 8.796875 39.328125 C 9.523438 39.511719 10.261719 39.613281 11.007812 39.640625 C 11.757812 39.664062 12.5 39.609375 13.238281 39.476562 C 13.976562 39.339844 14.691406 39.128906 15.382812 38.84375 C 16.074219 38.554688 16.726562 38.199219 17.34375 37.769531 C 17.960938 37.34375 18.523438 36.855469 19.035156 36.308594 C 20.316406 36.472656 21.527344 36.660156 22.570312 36.867188 C 22.804688 36.9375 22.972656 37.085938 23.066406 37.3125 C 23.222656 37.667969 23.429688 38 23.679688 38.296875 C 23.933594 38.597656 24.222656 38.851562 24.550781 39.066406 C 24.875 39.28125 25.226562 39.445312 25.601562 39.558594 C 25.976562 39.667969 26.359375 39.726562 26.75 39.726562 C 27.140625 39.726562 27.527344 39.667969 27.898438 39.558594 C 28.273438 39.445312 28.625 39.28125 28.953125 39.066406 C 29.28125 38.851562 29.570312 38.597656 29.824219 38.296875 C 30.074219 38 30.277344 37.667969 30.433594 37.3125 C 30.527344 37.070312 30.699219 36.914062 30.949219 36.84375 C 35.679688 36.046875 40.441406 35.648438 45.242188 35.648438 C 45.535156 35.648438 45.820312 35.589844 46.089844 35.472656 C 46.363281 35.359375 46.601562 35.195312 46.808594 34.984375 C 47.015625 34.773438 47.171875 34.53125 47.28125 34.257812 C 47.386719 33.980469 47.4375 33.695312 47.433594 33.402344 L 47.433594 11.25 C 47.433594 11.003906 47.394531 10.765625 47.3125 10.53125 C 47.230469 10.296875 47.113281 10.082031 46.960938 9.890625 C 46.808594 9.695312 46.628906 9.53125 46.417969 9.398438 C 46.210938 9.265625 45.988281 9.171875 45.746094 9.113281 Z M 27.527344 10.085938 C 27.53125 9.84375 27.640625 9.664062 27.847656 9.542969 C 30.863281 7.796875 34.117188 6.902344 37.601562 6.859375 L 38.609375 6.859375 C 39.640625 6.921875 40.660156 7.070312 41.664062 7.304688 C 41.808594 7.335938 41.929688 7.410156 42.019531 7.527344 C 42.113281 7.644531 42.15625 7.777344 42.15625 7.925781 L 42.15625 29.554688 C 42.15625 29.761719 42.078125 29.929688 41.914062 30.058594 C 41.765625 30.183594 41.59375 30.226562 41.402344 30.191406 C 40.628906 30.042969 39.851562 29.9375 39.070312 29.882812 C 35.34375 29.628906 31.804688 30.332031 28.453125 31.988281 C 28.242188 32.109375 28.027344 32.109375 27.816406 31.988281 C 27.621094 31.863281 27.523438 31.6875 27.519531 31.457031 L 27.519531 10.125 Z M 11.355469 9.308594 L 11.355469 7.980469 C 11.351562 7.832031 11.398438 7.699219 11.488281 7.582031 C 11.582031 7.464844 11.699219 7.390625 11.84375 7.359375 C 12.851562 7.121094 13.867188 6.972656 14.898438 6.914062 C 16.785156 6.832031 18.644531 7.015625 20.476562 7.464844 C 22.308594 7.917969 24.039062 8.617188 25.671875 9.566406 C 25.886719 9.6875 25.992188 9.871094 25.988281 10.117188 L 25.988281 31.421875 C 25.992188 31.648438 25.894531 31.824219 25.703125 31.949219 C 25.488281 32.066406 25.273438 32.066406 25.058594 31.949219 C 23.980469 31.429688 22.867188 31 21.722656 30.660156 C 21.800781 30.160156 21.839844 29.65625 21.847656 29.152344 C 21.84375 28.207031 21.714844 27.28125 21.457031 26.375 C 21.941406 26.53125 22.40625 26.695312 22.859375 26.875 C 22.949219 26.910156 23.046875 26.929688 23.144531 26.929688 C 23.332031 26.929688 23.5 26.871094 23.644531 26.753906 C 23.789062 26.636719 23.882812 26.484375 23.917969 26.300781 C 23.953125 26.117188 23.925781 25.941406 23.835938 25.777344 C 23.746094 25.613281 23.613281 25.496094 23.441406 25.429688 C 22.574219 25.089844 21.6875 24.808594 20.78125 24.582031 C 20.171875 23.328125 19.347656 22.238281 18.3125 21.308594 C 19.871094 21.527344 21.382812 21.929688 22.84375 22.519531 C 22.933594 22.558594 23.03125 22.574219 23.128906 22.574219 C 23.3125 22.574219 23.476562 22.511719 23.617188 22.394531 C 23.757812 22.277344 23.847656 22.128906 23.882812 21.949219 C 23.917969 21.769531 23.894531 21.597656 23.808594 21.433594 C 23.722656 21.273438 23.59375 21.15625 23.425781 21.082031 C 20.933594 20.078125 18.339844 19.585938 15.652344 19.605469 C 14.285156 18.984375 12.851562 18.667969 11.347656 18.660156 Z M 7.429688 11.25 C 7.429688 11.101562 7.476562 10.96875 7.570312 10.851562 C 7.660156 10.734375 7.78125 10.65625 7.925781 10.621094 C 8.339844 10.519531 8.945312 10.421875 9.535156 10.320312 L 9.800781 10.273438 L 9.800781 18.820312 C 8.984375 18.941406 8.195312 19.152344 7.429688 19.457031 Z M 11.316406 38.152344 C 10.726562 38.152344 10.144531 38.09375 9.566406 37.976562 C 8.992188 37.863281 8.429688 37.695312 7.886719 37.46875 C 7.34375 37.242188 6.828125 36.96875 6.335938 36.640625 C 5.847656 36.3125 5.394531 35.941406 4.980469 35.527344 C 4.5625 35.109375 4.191406 34.65625 3.867188 34.167969 C 3.539062 33.679688 3.261719 33.164062 3.039062 32.617188 C 2.8125 32.074219 2.640625 31.515625 2.527344 30.9375 C 2.414062 30.359375 2.355469 29.777344 2.355469 29.191406 C 2.355469 28.601562 2.414062 28.019531 2.527344 27.441406 C 2.640625 26.863281 2.8125 26.304688 3.039062 25.761719 C 3.261719 25.214844 3.539062 24.699219 3.867188 24.210938 C 4.191406 23.722656 4.5625 23.269531 4.980469 22.851562 C 5.394531 22.4375 5.847656 22.066406 6.335938 21.738281 C 6.828125 21.410156 7.34375 21.136719 7.886719 20.910156 C 8.429688 20.683594 8.992188 20.515625 9.566406 20.402344 C 10.144531 20.285156 10.726562 20.226562 11.316406 20.226562 C 11.90625 20.226562 12.488281 20.285156 13.0625 20.402344 C 13.640625 20.515625 14.203125 20.683594 14.746094 20.910156 C 15.289062 21.136719 15.804688 21.410156 16.292969 21.738281 C 16.785156 22.066406 17.238281 22.4375 17.652344 22.851562 C 18.070312 23.269531 18.441406 23.722656 18.765625 24.210938 C 19.09375 24.699219 19.371094 25.214844 19.59375 25.761719 C 19.820312 26.304688 19.992188 26.863281 20.105469 27.441406 C 20.21875 28.019531 20.277344 28.601562 20.277344 29.191406 C 20.277344 29.777344 20.21875 30.359375 20.105469 30.9375 C 19.988281 31.515625 19.820312 32.074219 19.59375 32.617188 C 19.367188 33.160156 19.089844 33.675781 18.765625 34.167969 C 18.4375 34.65625 18.066406 35.109375 17.648438 35.523438 C 17.234375 35.941406 16.78125 36.3125 16.292969 36.636719 C 15.804688 36.964844 15.289062 37.242188 14.746094 37.464844 C 14.199219 37.691406 13.640625 37.863281 13.0625 37.976562 C 12.488281 38.09375 11.90625 38.148438 11.316406 38.152344 Z M 45.878906 33.402344 C 45.878906 33.578125 45.816406 33.730469 45.6875 33.859375 C 45.5625 33.984375 45.410156 34.046875 45.234375 34.046875 C 40.332031 34.050781 35.46875 34.460938 30.636719 35.273438 C 30.269531 35.363281 29.941406 35.527344 29.65625 35.773438 C 29.371094 36.019531 29.15625 36.316406 29.011719 36.667969 C 28.816406 37.117188 28.515625 37.476562 28.105469 37.746094 C 27.695312 38.019531 27.242188 38.152344 26.75 38.152344 C 26.261719 38.152344 25.808594 38.019531 25.398438 37.746094 C 24.988281 37.476562 24.683594 37.117188 24.488281 36.667969 C 24.34375 36.324219 24.128906 36.039062 23.84375 35.804688 C 23.558594 35.570312 23.234375 35.417969 22.875 35.34375 C 22.097656 35.183594 21.125 35.027344 20.136719 34.886719 C 20.679688 34.058594 21.097656 33.167969 21.378906 32.21875 C 22.410156 32.539062 23.40625 32.933594 24.375 33.402344 C 24.71875 33.566406 25.082031 33.636719 25.460938 33.617188 C 25.84375 33.59375 26.195312 33.480469 26.519531 33.277344 C 26.597656 33.21875 26.675781 33.152344 26.75 33.082031 C 26.828125 33.152344 26.910156 33.21875 26.992188 33.277344 C 27.316406 33.484375 27.667969 33.597656 28.050781 33.617188 C 28.429688 33.636719 28.792969 33.5625 29.136719 33.394531 C 32.234375 31.859375 35.511719 31.203125 38.960938 31.429688 C 39.679688 31.484375 40.390625 31.582031 41.097656 31.714844 C 41.773438 31.847656 42.375 31.695312 42.902344 31.257812 C 43.429688 30.8125 43.6875 30.246094 43.679688 29.554688 L 43.679688 10.320312 L 43.871094 10.320312 C 44.417969 10.40625 44.976562 10.496094 45.347656 10.589844 C 45.496094 10.625 45.613281 10.703125 45.707031 10.820312 C 45.800781 10.9375 45.847656 11.070312 45.847656 11.21875 Z M 14.011719 11.796875 C 13.992188 11.582031 14.046875 11.390625 14.183594 11.226562 C 14.316406 11.058594 14.492188 10.964844 14.703125 10.941406 C 17.710938 10.75 20.613281 11.222656 23.402344 12.363281 C 23.574219 12.433594 23.707031 12.546875 23.796875 12.714844 C 23.886719 12.878906 23.914062 13.050781 23.878906 13.234375 C 23.84375 13.421875 23.75 13.570312 23.605469 13.6875 C 23.460938 13.808594 23.292969 13.867188 23.105469 13.863281 C 23.007812 13.859375 22.910156 13.84375 22.820312 13.808594 C 20.269531 12.769531 17.625 12.328125 14.875 12.480469 C 14.660156 12.503906 14.472656 12.449219 14.300781 12.316406 C 14.132812 12.183594 14.039062 12.007812 14.011719 11.796875 Z M 14.867188 16.855469 C 14.652344 16.878906 14.460938 16.820312 14.292969 16.683594 C 14.128906 16.550781 14.03125 16.375 14.007812 16.160156 C 13.988281 15.945312 14.042969 15.753906 14.179688 15.585938 C 14.316406 15.417969 14.488281 15.324219 14.703125 15.300781 C 17.710938 15.109375 20.613281 15.582031 23.402344 16.722656 C 23.574219 16.792969 23.707031 16.910156 23.796875 17.074219 C 23.886719 17.238281 23.914062 17.414062 23.878906 17.597656 C 23.84375 17.78125 23.75 17.929688 23.605469 18.050781 C 23.460938 18.167969 23.292969 18.226562 23.105469 18.222656 C 23.007812 18.222656 22.910156 18.207031 22.820312 18.167969 C 20.277344 17.128906 17.632812 16.691406 14.890625 16.855469 Z M 30.039062 13.375 C 29.957031 13.175781 29.960938 12.976562 30.042969 12.78125 C 30.128906 12.582031 30.269531 12.445312 30.464844 12.363281 C 33.265625 11.21875 36.175781 10.742188 39.195312 10.941406 C 39.410156 10.964844 39.582031 11.058594 39.71875 11.230469 C 39.855469 11.398438 39.910156 11.589844 39.886719 11.804688 C 39.863281 12.019531 39.765625 12.191406 39.597656 12.328125 C 39.429688 12.464844 39.238281 12.519531 39.023438 12.496094 C 36.289062 12.347656 33.652344 12.785156 31.113281 13.808594 C 31.019531 13.84375 30.921875 13.859375 30.824219 13.863281 C 30.65625 13.871094 30.503906 13.832031 30.363281 13.742188 C 30.222656 13.652344 30.125 13.527344 30.0625 13.375 Z M 30.039062 17.742188 C 29.957031 17.542969 29.960938 17.34375 30.042969 17.148438 C 30.128906 16.949219 30.269531 16.8125 30.464844 16.730469 C 33.257812 15.589844 36.160156 15.117188 39.171875 15.308594 C 39.386719 15.332031 39.558594 15.429688 39.695312 15.597656 C 39.832031 15.765625 39.886719 15.957031 39.863281 16.171875 C 39.839844 16.386719 39.742188 16.5625 39.574219 16.695312 C 39.40625 16.832031 39.214844 16.886719 39 16.863281 C 36.273438 16.710938 33.640625 17.148438 31.113281 18.175781 C 31.019531 18.214844 30.921875 18.230469 30.824219 18.230469 C 30.65625 18.238281 30.503906 18.199219 30.363281 18.109375 C 30.222656 18.019531 30.125 17.894531 30.0625 17.742188 Z M 30.039062 22.117188 C 29.957031 21.917969 29.960938 21.71875 30.042969 21.523438 C 30.128906 21.328125 30.269531 21.1875 30.464844 21.105469 C 33.257812 19.960938 36.160156 19.484375 39.171875 19.675781 C 39.386719 19.699219 39.558594 19.796875 39.695312 19.964844 C 39.832031 20.132812 39.886719 20.324219 39.863281 20.539062 C 39.839844 20.753906 39.742188 20.929688 39.574219 21.0625 C 39.40625 21.199219 39.214844 21.253906 39 21.230469 C 36.273438 21.074219 33.644531 21.503906 31.113281 22.519531 C 31.019531 22.558594 30.921875 22.574219 30.824219 22.574219 C 30.660156 22.585938 30.511719 22.550781 30.371094 22.464844 C 30.230469 22.382812 30.128906 22.265625 30.0625 22.117188 Z M 30.039062 26.484375 C 29.957031 26.285156 29.960938 26.089844 30.042969 25.890625 C 30.128906 25.695312 30.269531 25.554688 30.464844 25.472656 C 33.269531 24.339844 36.179688 23.875 39.195312 24.074219 C 39.40625 24.101562 39.582031 24.195312 39.714844 24.363281 C 39.847656 24.535156 39.902344 24.722656 39.878906 24.9375 C 39.855469 25.148438 39.757812 25.324219 39.589844 25.457031 C 39.425781 25.589844 39.234375 25.644531 39.023438 25.621094 C 36.289062 25.46875 33.652344 25.898438 31.113281 26.914062 C 31.019531 26.953125 30.921875 26.972656 30.824219 26.972656 C 30.65625 26.984375 30.503906 26.941406 30.363281 26.851562 C 30.222656 26.761719 30.125 26.640625 30.0625 26.484375 Z M 14.496094 23.8125 L 7.957031 25.367188 C 7.566406 25.453125 7.226562 25.636719 6.945312 25.925781 C 6.660156 26.210938 6.480469 26.546875 6.394531 26.941406 C 6.3125 27.335938 6.339844 27.71875 6.484375 28.097656 C 6.625 28.472656 6.859375 28.78125 7.179688 29.019531 L 7.703125 29.398438 L 6.148438 30.953125 C 5.953125 31.144531 5.804688 31.367188 5.699219 31.617188 C 5.59375 31.867188 5.542969 32.128906 5.542969 32.402344 C 5.542969 32.675781 5.59375 32.9375 5.699219 33.1875 C 5.804688 33.441406 5.953125 33.660156 6.148438 33.851562 L 6.878906 34.628906 C 7.070312 34.820312 7.292969 34.96875 7.546875 35.070312 C 7.796875 35.175781 8.058594 35.226562 8.332031 35.226562 C 8.605469 35.226562 8.867188 35.175781 9.117188 35.070312 C 9.367188 34.96875 9.589844 34.820312 9.785156 34.628906 L 11.339844 33.074219 L 11.71875 33.597656 C 11.960938 33.917969 12.265625 34.148438 12.640625 34.289062 C 13.015625 34.429688 13.398438 34.457031 13.792969 34.375 C 14.183594 34.289062 14.519531 34.109375 14.804688 33.828125 C 15.089844 33.546875 15.277344 33.210938 15.367188 32.820312 L 16.917969 26.28125 C 16.960938 26.113281 16.980469 25.941406 16.976562 25.765625 C 16.972656 25.589844 16.945312 25.417969 16.898438 25.25 C 16.851562 25.078125 16.78125 24.921875 16.695312 24.769531 C 16.605469 24.617188 16.5 24.480469 16.375 24.355469 C 16.25 24.234375 16.113281 24.125 15.960938 24.039062 C 15.8125 23.949219 15.652344 23.878906 15.484375 23.832031 C 15.3125 23.785156 15.140625 23.757812 14.964844 23.753906 C 14.792969 23.753906 14.617188 23.769531 14.449219 23.8125 Z M 15.449219 25.925781 L 13.894531 32.460938 C 13.847656 32.667969 13.714844 32.789062 13.507812 32.828125 C 13.300781 32.875 13.132812 32.816406 13.011719 32.640625 L 12.457031 31.847656 C 12.226562 31.535156 11.921875 31.363281 11.535156 31.335938 C 11.144531 31.308594 10.8125 31.433594 10.539062 31.707031 L 8.726562 33.519531 C 8.632812 33.617188 8.515625 33.664062 8.378906 33.664062 C 8.242188 33.664062 8.125 33.617188 8.027344 33.519531 L 7.25 32.78125 C 7.152344 32.683594 7.105469 32.566406 7.105469 32.429688 C 7.105469 32.292969 7.152344 32.171875 7.25 32.074219 L 9.109375 30.292969 C 9.238281 30.164062 9.335938 30.011719 9.398438 29.835938 C 9.460938 29.664062 9.488281 29.488281 9.472656 29.304688 C 9.457031 29.121094 9.40625 28.949219 9.316406 28.785156 C 9.226562 28.625 9.109375 28.492188 8.960938 28.382812 L 8.183594 27.796875 C 8.011719 27.671875 7.945312 27.503906 7.988281 27.292969 C 8.03125 27.082031 8.152344 26.957031 8.363281 26.914062 L 14.898438 25.359375 L 15.023438 25.359375 C 15.183594 25.363281 15.3125 25.429688 15.40625 25.554688 C 15.503906 25.683594 15.535156 25.824219 15.496094 25.980469 Z M 15.449219 25.925781 " fill-opacity="1" fill-rule="nonzero"/></g><g clip-path="url(#046b309928)"><path fill="#ffffff" d="M 45.746094 9.832031 C 45.320312 9.722656 44.726562 9.628906 44.191406 9.535156 L 43.75 9.457031 L 43.75 8.679688 C 43.746094 8.429688 43.703125 8.1875 43.617188 7.953125 C 43.53125 7.714844 43.40625 7.5 43.246094 7.308594 C 43.085938 7.117188 42.898438 6.953125 42.683594 6.824219 C 42.46875 6.699219 42.238281 6.609375 41.992188 6.558594 C 40.898438 6.304688 39.792969 6.144531 38.671875 6.085938 C 36.644531 5.996094 34.644531 6.191406 32.671875 6.675781 C 30.699219 7.164062 28.832031 7.917969 27.078125 8.9375 C 26.964844 9.011719 26.859375 9.09375 26.757812 9.1875 C 26.664062 9.09375 26.558594 9.011719 26.449219 8.9375 C 24.683594 7.910156 22.808594 7.152344 20.824219 6.664062 C 18.84375 6.179688 16.832031 5.984375 14.789062 6.078125 C 13.671875 6.144531 12.5625 6.304688 11.472656 6.558594 C 11.230469 6.617188 11.007812 6.710938 10.796875 6.84375 C 10.589844 6.976562 10.40625 7.140625 10.253906 7.332031 C 10.097656 7.527344 9.980469 7.742188 9.898438 7.976562 C 9.820312 8.207031 9.777344 8.449219 9.777344 8.695312 L 9.777344 9.410156 L 9.25 9.503906 C 8.644531 9.605469 8.003906 9.714844 7.53125 9.832031 C 7.292969 9.890625 7.074219 9.988281 6.867188 10.121094 C 6.664062 10.257812 6.484375 10.421875 6.335938 10.613281 C 6.183594 10.808594 6.070312 11.019531 5.992188 11.253906 C 5.914062 11.484375 5.875 11.722656 5.875 11.96875 L 5.875 20.90625 C 5.238281 21.296875 4.644531 21.753906 4.105469 22.269531 C 3.5625 22.789062 3.082031 23.355469 2.660156 23.976562 C 2.242188 24.597656 1.890625 25.253906 1.613281 25.949219 C 1.332031 26.644531 1.132812 27.363281 1.003906 28.101562 C 0.878906 28.839844 0.832031 29.582031 0.867188 30.332031 C 0.902344 31.082031 1.011719 31.816406 1.203125 32.542969 C 1.394531 33.265625 1.660156 33.960938 2 34.628906 C 2.339844 35.296875 2.75 35.921875 3.222656 36.503906 C 3.695312 37.082031 4.226562 37.605469 4.8125 38.074219 C 5.398438 38.539062 6.027344 38.941406 6.699219 39.273438 C 7.371094 39.605469 8.070312 39.863281 8.796875 40.046875 C 9.523438 40.226562 10.261719 40.332031 11.007812 40.355469 C 11.757812 40.382812 12.5 40.328125 13.238281 40.191406 C 13.976562 40.058594 14.691406 39.847656 15.382812 39.558594 C 16.074219 39.273438 16.726562 38.914062 17.34375 38.488281 C 17.960938 38.0625 18.523438 37.574219 19.035156 37.027344 C 20.316406 37.1875 21.527344 37.375 22.570312 37.585938 C 22.804688 37.652344 22.972656 37.800781 23.066406 38.027344 C 23.222656 38.386719 23.429688 38.714844 23.679688 39.015625 C 23.933594 39.3125 24.222656 39.570312 24.550781 39.785156 C 24.875 40 25.226562 40.164062 25.601562 40.273438 C 25.976562 40.386719 26.359375 40.441406 26.75 40.441406 C 27.140625 40.441406 27.527344 40.386719 27.898438 40.273438 C 28.273438 40.164062 28.625 40 28.953125 39.785156 C 29.28125 39.570312 29.570312 39.3125 29.824219 39.015625 C 30.074219 38.714844 30.277344 38.386719 30.433594 38.027344 C 30.527344 37.789062 30.699219 37.632812 30.949219 37.5625 C 35.679688 36.765625 40.441406 36.367188 45.242188 36.363281 C 45.535156 36.363281 45.820312 36.304688 46.089844 36.191406 C 46.363281 36.074219 46.601562 35.914062 46.808594 35.703125 C 47.015625 35.492188 47.171875 35.246094 47.28125 34.972656 C 47.386719 34.699219 47.4375 34.414062 47.433594 34.117188 L 47.433594 11.96875 C 47.433594 11.722656 47.394531 11.480469 47.3125 11.246094 C 47.230469 11.015625 47.113281 10.800781 46.960938 10.605469 C 46.808594 10.414062 46.628906 10.25 46.417969 10.117188 C 46.210938 9.984375 45.988281 9.886719 45.746094 9.832031 Z M 27.527344 10.804688 C 27.53125 10.5625 27.640625 10.378906 27.847656 10.257812 C 30.863281 8.511719 34.117188 7.621094 37.601562 7.578125 L 38.609375 7.578125 C 39.640625 7.640625 40.660156 7.789062 41.664062 8.019531 C 41.808594 8.054688 41.929688 8.128906 42.019531 8.246094 C 42.113281 8.363281 42.15625 8.492188 42.15625 8.640625 L 42.15625 30.273438 C 42.15625 30.480469 42.078125 30.648438 41.914062 30.777344 C 41.765625 30.902344 41.59375 30.945312 41.402344 30.910156 C 40.628906 30.757812 39.851562 30.65625 39.070312 30.597656 C 35.34375 30.347656 31.804688 31.050781 28.453125 32.703125 C 28.242188 32.824219 28.027344 32.824219 27.816406 32.703125 C 27.621094 32.582031 27.523438 32.40625 27.519531 32.175781 L 27.519531 10.84375 Z M 11.355469 10.027344 L 11.355469 8.695312 C 11.351562 8.546875 11.398438 8.414062 11.488281 8.300781 C 11.582031 8.183594 11.699219 8.109375 11.84375 8.074219 C 12.851562 7.835938 13.867188 7.691406 14.898438 7.632812 C 16.785156 7.550781 18.644531 7.734375 20.476562 8.183594 C 22.308594 8.632812 24.039062 9.335938 25.671875 10.28125 C 25.886719 10.402344 25.992188 10.585938 25.988281 10.835938 L 25.988281 32.136719 C 25.992188 32.367188 25.894531 32.542969 25.703125 32.664062 C 25.488281 32.785156 25.273438 32.785156 25.058594 32.664062 C 23.980469 32.148438 22.867188 31.71875 21.722656 31.375 C 21.800781 30.875 21.839844 30.375 21.847656 29.867188 C 21.84375 28.925781 21.714844 28 21.457031 27.09375 C 21.941406 27.25 22.40625 27.410156 22.859375 27.589844 C 22.949219 27.628906 23.046875 27.644531 23.144531 27.644531 C 23.332031 27.648438 23.5 27.589844 23.644531 27.472656 C 23.789062 27.351562 23.882812 27.203125 23.917969 27.019531 C 23.953125 26.832031 23.925781 26.660156 23.835938 26.496094 C 23.746094 26.332031 23.613281 26.214844 23.441406 26.144531 C 22.574219 25.804688 21.6875 25.523438 20.78125 25.296875 C 20.171875 24.046875 19.347656 22.953125 18.3125 22.027344 C 19.871094 22.242188 21.382812 22.648438 22.84375 23.238281 C 22.933594 23.273438 23.03125 23.292969 23.128906 23.292969 C 23.3125 23.289062 23.476562 23.230469 23.617188 23.113281 C 23.757812 22.996094 23.847656 22.847656 23.882812 22.667969 C 23.917969 22.484375 23.894531 22.316406 23.808594 22.152344 C 23.722656 21.988281 23.59375 21.871094 23.425781 21.800781 C 20.933594 20.792969 18.339844 20.300781 15.652344 20.324219 C 14.285156 19.699219 12.851562 19.382812 11.347656 19.375 Z M 7.429688 11.96875 C 7.429688 11.820312 7.476562 11.683594 7.570312 11.566406 C 7.660156 11.449219 7.78125 11.375 7.925781 11.339844 C 8.339844 11.238281 8.945312 11.136719 9.535156 11.035156 L 9.800781 10.988281 L 9.800781 19.539062 C 8.984375 19.65625 8.195312 19.871094 7.429688 20.175781 Z M 11.316406 38.867188 C 10.726562 38.867188 10.144531 38.808594 9.566406 38.695312 C 8.992188 38.582031 8.429688 38.410156 7.886719 38.183594 C 7.34375 37.960938 6.828125 37.683594 6.335938 37.355469 C 5.847656 37.03125 5.394531 36.660156 4.980469 36.242188 C 4.5625 35.828125 4.191406 35.375 3.867188 34.886719 C 3.539062 34.394531 3.261719 33.878906 3.039062 33.335938 C 2.8125 32.792969 2.640625 32.230469 2.527344 31.65625 C 2.414062 31.078125 2.355469 30.496094 2.355469 29.90625 C 2.355469 29.316406 2.414062 28.734375 2.527344 28.160156 C 2.640625 27.582031 2.8125 27.019531 3.039062 26.476562 C 3.261719 25.933594 3.539062 25.417969 3.867188 24.929688 C 4.191406 24.4375 4.5625 23.984375 4.980469 23.570312 C 5.394531 23.152344 5.847656 22.78125 6.335938 22.457031 C 6.828125 22.128906 7.34375 21.851562 7.886719 21.628906 C 8.429688 21.402344 8.992188 21.234375 9.566406 21.117188 C 10.144531 21.003906 10.726562 20.945312 11.316406 20.945312 C 11.90625 20.945312 12.488281 21.003906 13.0625 21.117188 C 13.640625 21.234375 14.203125 21.402344 14.746094 21.628906 C 15.289062 21.851562 15.804688 22.128906 16.292969 22.457031 C 16.785156 22.78125 17.238281 23.152344 17.652344 23.570312 C 18.070312 23.984375 18.441406 24.4375 18.765625 24.929688 C 19.09375 25.417969 19.371094 25.933594 19.59375 26.476562 C 19.820312 27.019531 19.992188 27.582031 20.105469 28.160156 C 20.21875 28.734375 20.277344 29.316406 20.277344 29.90625 C 20.277344 30.496094 20.21875 31.078125 20.105469 31.652344 C 19.988281 32.230469 19.820312 32.792969 19.59375 33.335938 C 19.367188 33.878906 19.089844 34.394531 18.765625 34.882812 C 18.4375 35.371094 18.066406 35.824219 17.648438 36.242188 C 17.234375 36.65625 16.78125 37.027344 16.292969 37.355469 C 15.804688 37.683594 15.289062 37.957031 14.746094 38.183594 C 14.199219 38.410156 13.640625 38.578125 13.0625 38.695312 C 12.488281 38.808594 11.90625 38.867188 11.316406 38.867188 Z M 45.878906 34.117188 C 45.878906 34.296875 45.816406 34.449219 45.6875 34.574219 C 45.5625 34.699219 45.410156 34.765625 45.234375 34.765625 C 40.332031 34.769531 35.46875 35.175781 30.636719 35.992188 C 30.269531 36.078125 29.941406 36.246094 29.65625 36.492188 C 29.371094 36.734375 29.15625 37.035156 29.011719 37.382812 C 28.816406 37.835938 28.515625 38.195312 28.105469 38.464844 C 27.695312 38.734375 27.242188 38.871094 26.75 38.871094 C 26.261719 38.871094 25.808594 38.734375 25.398438 38.464844 C 24.988281 38.195312 24.683594 37.835938 24.488281 37.382812 C 24.34375 37.042969 24.128906 36.757812 23.84375 36.523438 C 23.558594 36.289062 23.234375 36.136719 22.875 36.0625 C 22.097656 35.898438 21.125 35.742188 20.136719 35.601562 C 20.679688 34.773438 21.097656 33.886719 21.378906 32.9375 C 22.410156 33.253906 23.40625 33.648438 24.375 34.117188 C 24.71875 34.285156 25.082031 34.355469 25.460938 34.332031 C 25.84375 34.3125 26.195312 34.199219 26.519531 33.996094 C 26.597656 33.933594 26.675781 33.871094 26.75 33.800781 C 26.828125 33.871094 26.910156 33.933594 26.992188 33.996094 C 27.316406 34.199219 27.667969 34.3125 28.050781 34.332031 C 28.429688 34.355469 28.792969 34.28125 29.136719 34.109375 C 32.234375 32.574219 35.511719 31.921875 38.960938 32.144531 C 39.679688 32.203125 40.390625 32.296875 41.097656 32.433594 C 41.773438 32.566406 42.375 32.414062 42.902344 31.972656 C 43.429688 31.53125 43.6875 30.960938 43.679688 30.273438 L 43.679688 11.035156 L 43.871094 11.035156 C 44.417969 11.121094 44.976562 11.214844 45.347656 11.308594 C 45.496094 11.34375 45.613281 11.421875 45.707031 11.539062 C 45.800781 11.65625 45.847656 11.789062 45.847656 11.9375 Z M 14.011719 12.511719 C 13.992188 12.300781 14.046875 12.109375 14.183594 11.941406 C 14.316406 11.773438 14.492188 11.679688 14.703125 11.65625 C 17.710938 11.464844 20.613281 11.9375 23.402344 13.082031 C 23.574219 13.148438 23.707031 13.265625 23.796875 13.429688 C 23.886719 13.59375 23.914062 13.769531 23.878906 13.953125 C 23.84375 14.136719 23.75 14.289062 23.605469 14.40625 C 23.460938 14.523438 23.292969 14.582031 23.105469 14.582031 C 23.007812 14.578125 22.910156 14.558594 22.820312 14.527344 C 20.269531 13.488281 17.625 13.042969 14.875 13.195312 C 14.660156 13.222656 14.472656 13.167969 14.300781 13.035156 C 14.132812 12.898438 14.039062 12.726562 14.011719 12.511719 Z M 14.867188 17.574219 C 14.652344 17.59375 14.460938 17.539062 14.292969 17.402344 C 14.128906 17.265625 14.03125 17.089844 14.007812 16.875 C 13.988281 16.664062 14.042969 16.472656 14.179688 16.304688 C 14.316406 16.136719 14.488281 16.039062 14.703125 16.019531 C 17.710938 15.824219 20.613281 16.300781 23.402344 17.441406 C 23.574219 17.507812 23.707031 17.625 23.796875 17.789062 C 23.886719 17.953125 23.914062 18.128906 23.878906 18.3125 C 23.84375 18.496094 23.75 18.648438 23.605469 18.765625 C 23.460938 18.882812 23.292969 18.941406 23.105469 18.941406 C 23.007812 18.941406 22.910156 18.921875 22.820312 18.886719 C 20.277344 17.847656 17.632812 17.410156 14.890625 17.574219 Z M 30.039062 14.089844 C 29.957031 13.890625 29.960938 13.695312 30.042969 13.496094 C 30.128906 13.300781 30.269531 13.160156 30.464844 13.082031 C 33.265625 11.933594 36.175781 11.460938 39.195312 11.65625 C 39.410156 11.679688 39.582031 11.777344 39.71875 11.945312 C 39.855469 12.113281 39.910156 12.304688 39.886719 12.519531 C 39.863281 12.734375 39.765625 12.910156 39.597656 13.046875 C 39.429688 13.179688 39.238281 13.234375 39.023438 13.210938 C 36.289062 13.0625 33.652344 13.5 31.113281 14.527344 C 31.019531 14.558594 30.921875 14.578125 30.824219 14.582031 C 30.65625 14.589844 30.503906 14.546875 30.363281 14.457031 C 30.222656 14.367188 30.125 14.246094 30.0625 14.089844 Z M 30.039062 18.457031 C 29.957031 18.261719 29.960938 18.0625 30.042969 17.863281 C 30.128906 17.667969 30.269531 17.527344 30.464844 17.449219 C 33.257812 16.304688 36.160156 15.832031 39.171875 16.027344 C 39.386719 16.050781 39.558594 16.144531 39.695312 16.3125 C 39.832031 16.484375 39.886719 16.675781 39.863281 16.886719 C 39.839844 17.101562 39.742188 17.277344 39.574219 17.414062 C 39.40625 17.546875 39.214844 17.605469 39 17.582031 C 36.273438 17.425781 33.640625 17.863281 31.113281 18.894531 C 31.019531 18.929688 30.921875 18.949219 30.824219 18.949219 C 30.65625 18.957031 30.503906 18.914062 30.363281 18.824219 C 30.222656 18.734375 30.125 18.613281 30.0625 18.457031 Z M 30.039062 22.835938 C 29.957031 22.636719 29.960938 22.4375 30.042969 22.242188 C 30.128906 22.042969 30.269531 21.90625 30.464844 21.824219 C 33.257812 20.675781 36.160156 20.199219 39.171875 20.394531 C 39.386719 20.417969 39.558594 20.511719 39.695312 20.683594 C 39.832031 20.851562 39.886719 21.042969 39.863281 21.257812 C 39.839844 21.472656 39.742188 21.644531 39.574219 21.78125 C 39.40625 21.914062 39.214844 21.972656 39 21.949219 C 36.273438 21.792969 33.644531 22.222656 31.113281 23.238281 C 31.019531 23.273438 30.921875 23.292969 30.824219 23.292969 C 30.660156 23.304688 30.511719 23.265625 30.371094 23.183594 C 30.230469 23.097656 30.128906 22.984375 30.0625 22.835938 Z M 30.039062 27.203125 C 29.957031 27.003906 29.960938 26.804688 30.042969 26.609375 C 30.128906 26.410156 30.269531 26.273438 30.464844 26.191406 C 33.269531 25.058594 36.179688 24.589844 39.195312 24.792969 C 39.40625 24.816406 39.582031 24.914062 39.714844 25.082031 C 39.847656 25.25 39.902344 25.441406 39.878906 25.65625 C 39.855469 25.867188 39.757812 26.039062 39.589844 26.171875 C 39.425781 26.308594 39.234375 26.363281 39.023438 26.339844 C 36.289062 26.183594 33.652344 26.613281 31.113281 27.628906 C 31.019531 27.667969 30.921875 27.6875 30.824219 27.691406 C 30.65625 27.699219 30.503906 27.660156 30.363281 27.570312 C 30.222656 27.480469 30.125 27.355469 30.0625 27.203125 Z M 14.496094 24.527344 L 7.957031 26.082031 C 7.566406 26.167969 7.226562 26.355469 6.945312 26.640625 C 6.660156 26.925781 6.480469 27.265625 6.394531 27.660156 C 6.3125 28.050781 6.339844 28.4375 6.484375 28.8125 C 6.625 29.1875 6.859375 29.496094 7.179688 29.734375 L 7.703125 30.117188 L 6.148438 31.671875 C 5.953125 31.863281 5.804688 32.082031 5.699219 32.335938 C 5.59375 32.585938 5.542969 32.847656 5.542969 33.121094 C 5.542969 33.394531 5.59375 33.65625 5.699219 33.90625 C 5.804688 34.15625 5.953125 34.378906 6.148438 34.570312 L 6.878906 35.347656 C 7.070312 35.539062 7.292969 35.683594 7.546875 35.789062 C 7.796875 35.890625 8.058594 35.945312 8.332031 35.945312 C 8.605469 35.945312 8.867188 35.890625 9.117188 35.789062 C 9.367188 35.683594 9.589844 35.539062 9.785156 35.347656 L 11.339844 33.792969 L 11.71875 34.3125 C 11.960938 34.632812 12.265625 34.863281 12.640625 35.003906 C 13.015625 35.144531 13.398438 35.175781 13.792969 35.089844 C 14.183594 35.007812 14.519531 34.824219 14.804688 34.542969 C 15.089844 34.261719 15.277344 33.925781 15.367188 33.535156 L 16.917969 27 C 16.960938 26.828125 16.980469 26.65625 16.976562 26.480469 C 16.972656 26.304688 16.945312 26.132812 16.898438 25.964844 C 16.851562 25.796875 16.78125 25.636719 16.695312 25.484375 C 16.605469 25.335938 16.5 25.199219 16.375 25.074219 C 16.25 24.949219 16.113281 24.84375 15.960938 24.753906 C 15.8125 24.664062 15.652344 24.597656 15.484375 24.550781 C 15.3125 24.503906 15.140625 24.476562 14.964844 24.472656 C 14.792969 24.46875 14.617188 24.488281 14.449219 24.527344 Z M 15.449219 26.640625 L 13.894531 33.179688 C 13.847656 33.382812 13.714844 33.507812 13.507812 33.542969 C 13.300781 33.59375 13.132812 33.53125 13.011719 33.355469 L 12.457031 32.566406 C 12.226562 32.253906 11.921875 32.082031 11.535156 32.050781 C 11.144531 32.027344 10.8125 32.152344 10.539062 32.425781 L 8.726562 34.234375 C 8.632812 34.332031 8.515625 34.382812 8.378906 34.382812 C 8.242188 34.382812 8.125 34.332031 8.027344 34.234375 L 7.25 33.496094 C 7.152344 33.402344 7.105469 33.285156 7.105469 33.148438 C 7.105469 33.007812 7.152344 32.890625 7.25 32.789062 L 9.109375 31.011719 C 9.238281 30.878906 9.335938 30.726562 9.398438 30.554688 C 9.460938 30.382812 9.488281 30.203125 9.472656 30.019531 C 9.457031 29.835938 9.40625 29.664062 9.316406 29.503906 C 9.226562 29.34375 9.109375 29.207031 8.960938 29.097656 L 8.183594 28.515625 C 8.011719 28.390625 7.945312 28.21875 7.988281 28.011719 C 8.03125 27.800781 8.152344 27.671875 8.363281 27.628906 L 14.898438 26.074219 L 15.023438 26.074219 C 15.183594 26.082031 15.3125 26.148438 15.40625 26.273438 C 15.503906 26.402344 15.535156 26.542969 15.496094 26.695312 Z M 15.449219 26.640625 " fill-opacity="1" fill-rule="nonzero"/></g></svg>